<?xml version="1.0" encoding="utf-8" standalone="no"?>
<!DOCTYPE svg PUBLIC "-//W3C//DTD SVG 1.1//EN"
  "http://www.w3.org/Graphics/SVG/1.1/DTD/svg11.dtd">
<svg xmlns:xlink="http://www.w3.org/1999/xlink" width="426.957969pt" height="351.229781pt" viewBox="0 0 426.957969 351.229781" xmlns="http://www.w3.org/2000/svg" version="1.1">
 <metadata>
  <rdf:RDF xmlns:dc="http://purl.org/dc/elements/1.1/" xmlns:cc="http://creativecommons.org/ns#" xmlns:rdf="http://www.w3.org/1999/02/22-rdf-syntax-ns#">
   <cc:Work>
    <dc:type rdf:resource="http://purl.org/dc/dcmitype/StillImage"/>
    <dc:date>2026-04-15T14:34:14.639537</dc:date>
    <dc:format>image/svg+xml</dc:format>
    <dc:creator>
     <cc:Agent>
      <dc:title>Matplotlib v3.9.4, https://matplotlib.org/</dc:title>
     </cc:Agent>
    </dc:creator>
   </cc:Work>
  </rdf:RDF>
 </metadata>
 <defs>
  <style type="text/css">*{stroke-linejoin: round; stroke-linecap: butt}</style>
 </defs>
 <g id="figure_1">
  <g id="patch_1">
   <path d="M 0 351.229781 
L 426.957969 351.229781 
L 426.957969 0 
L 0 0 
z
" style="fill: #ffffff"/>
  </g>
  <g id="axes_1">
   <g id="patch_2">
    <path d="M 41.570938 307.637513 
L 417.480937 307.637513 
L 417.480937 35.99625 
L 41.570938 35.99625 
z
" style="fill: #ffffff"/>
   </g>
   <g id="line2d_1">
    <path d="M 41.570938 271.895242 
L 417.480937 271.895242 
" clip-path="url(#p1c3f1735bc)" style="fill: none; stroke-dasharray: 3.7,1.6; stroke-dashoffset: 0; stroke: #999999"/>
   </g>
   <g id="matplotlib.axis_1">
    <g id="xtick_1">
     <g id="line2d_2">
      <defs>
       <path id="m2be50023ac" d="M 0 0 
L 0 3.5 
" style="stroke: #000000; stroke-width: 0.8"/>
      </defs>
      <g>
       <use xlink:href="#m2be50023ac" x="88.559687" y="307.637513" style="stroke: #000000; stroke-width: 0.8"/>
      </g>
     </g>
     <g id="text_1">
      <!-- N -->
      <g transform="translate(84.445 322.995794) scale(0.11 -0.11)">
       <defs>
        <path id="DejaVuSans-4e" d="M 628 4666 
L 1478 4666 
L 3547 763 
L 3547 4666 
L 4159 4666 
L 4159 0 
L 3309 0 
L 1241 3903 
L 1241 0 
L 628 0 
L 628 4666 
z
" transform="scale(0.015625)"/>
       </defs>
       <use xlink:href="#DejaVuSans-4e"/>
      </g>
      <!-- CUED -->
      <g transform="translate(72.983516 335.313388) scale(0.11 -0.11)">
       <defs>
        <path id="DejaVuSans-43" d="M 4122 4306 
L 4122 3641 
Q 3803 3938 3442 4084 
Q 3081 4231 2675 4231 
Q 1875 4231 1450 3742 
Q 1025 3253 1025 2328 
Q 1025 1406 1450 917 
Q 1875 428 2675 428 
Q 3081 428 3442 575 
Q 3803 722 4122 1019 
L 4122 359 
Q 3791 134 3420 21 
Q 3050 -91 2638 -91 
Q 1578 -91 968 557 
Q 359 1206 359 2328 
Q 359 3453 968 4101 
Q 1578 4750 2638 4750 
Q 3056 4750 3426 4639 
Q 3797 4528 4122 4306 
z
" transform="scale(0.015625)"/>
        <path id="DejaVuSans-55" d="M 556 4666 
L 1191 4666 
L 1191 1831 
Q 1191 1081 1462 751 
Q 1734 422 2344 422 
Q 2950 422 3222 751 
Q 3494 1081 3494 1831 
L 3494 4666 
L 4128 4666 
L 4128 1753 
Q 4128 841 3676 375 
Q 3225 -91 2344 -91 
Q 1459 -91 1007 375 
Q 556 841 556 1753 
L 556 4666 
z
" transform="scale(0.015625)"/>
        <path id="DejaVuSans-45" d="M 628 4666 
L 3578 4666 
L 3578 4134 
L 1259 4134 
L 1259 2753 
L 3481 2753 
L 3481 2222 
L 1259 2222 
L 1259 531 
L 3634 531 
L 3634 0 
L 628 0 
L 628 4666 
z
" transform="scale(0.015625)"/>
        <path id="DejaVuSans-44" d="M 1259 4147 
L 1259 519 
L 2022 519 
Q 2988 519 3436 956 
Q 3884 1394 3884 2338 
Q 3884 3275 3436 3711 
Q 2988 4147 2022 4147 
L 1259 4147 
z
M 628 4666 
L 1925 4666 
Q 3281 4666 3915 4102 
Q 4550 3538 4550 2338 
Q 4550 1131 3912 565 
Q 3275 0 1925 0 
L 628 0 
L 628 4666 
z
" transform="scale(0.015625)"/>
       </defs>
       <use xlink:href="#DejaVuSans-43"/>
       <use xlink:href="#DejaVuSans-55" x="69.824219"/>
       <use xlink:href="#DejaVuSans-45" x="143.017578"/>
       <use xlink:href="#DejaVuSans-44" x="206.201172"/>
      </g>
     </g>
    </g>
    <g id="xtick_2">
     <g id="line2d_3">
      <g>
       <use xlink:href="#m2be50023ac" x="166.874271" y="307.637513" style="stroke: #000000; stroke-width: 0.8"/>
      </g>
     </g>
     <g id="text_2">
      <!-- N -->
      <g transform="translate(162.759583 322.995794) scale(0.11 -0.11)">
       <use xlink:href="#DejaVuSans-4e"/>
      </g>
      <!-- UNCUED -->
      <g transform="translate(143.158099 335.313388) scale(0.11 -0.11)">
       <use xlink:href="#DejaVuSans-55"/>
       <use xlink:href="#DejaVuSans-4e" x="73.193359"/>
       <use xlink:href="#DejaVuSans-43" x="147.998047"/>
       <use xlink:href="#DejaVuSans-55" x="217.822266"/>
       <use xlink:href="#DejaVuSans-45" x="291.015625"/>
       <use xlink:href="#DejaVuSans-44" x="354.199219"/>
      </g>
     </g>
    </g>
    <g id="xtick_3">
     <g id="line2d_4">
      <g>
       <use xlink:href="#m2be50023ac" x="292.177604" y="307.637513" style="stroke: #000000; stroke-width: 0.8"/>
      </g>
     </g>
     <g id="text_3">
      <!-- Z -->
      <g transform="translate(288.410104 322.995794) scale(0.11 -0.11)">
       <defs>
        <path id="DejaVuSans-5a" d="M 359 4666 
L 4025 4666 
L 4025 4184 
L 1075 531 
L 4097 531 
L 4097 0 
L 288 0 
L 288 481 
L 3238 4134 
L 359 4134 
L 359 4666 
z
" transform="scale(0.015625)"/>
       </defs>
       <use xlink:href="#DejaVuSans-5a"/>
      </g>
      <!-- CUED -->
      <g transform="translate(276.601432 335.313388) scale(0.11 -0.11)">
       <use xlink:href="#DejaVuSans-43"/>
       <use xlink:href="#DejaVuSans-55" x="69.824219"/>
       <use xlink:href="#DejaVuSans-45" x="143.017578"/>
       <use xlink:href="#DejaVuSans-44" x="206.201172"/>
      </g>
     </g>
    </g>
    <g id="xtick_4">
     <g id="line2d_5">
      <g>
       <use xlink:href="#m2be50023ac" x="370.492188" y="307.637513" style="stroke: #000000; stroke-width: 0.8"/>
      </g>
     </g>
     <g id="text_4">
      <!-- Z -->
      <g transform="translate(366.724688 322.995794) scale(0.11 -0.11)">
       <use xlink:href="#DejaVuSans-5a"/>
      </g>
      <!-- UNCUED -->
      <g transform="translate(346.776016 335.313388) scale(0.11 -0.11)">
       <use xlink:href="#DejaVuSans-55"/>
       <use xlink:href="#DejaVuSans-4e" x="73.193359"/>
       <use xlink:href="#DejaVuSans-43" x="147.998047"/>
       <use xlink:href="#DejaVuSans-55" x="217.822266"/>
       <use xlink:href="#DejaVuSans-45" x="291.015625"/>
       <use xlink:href="#DejaVuSans-44" x="354.199219"/>
      </g>
     </g>
    </g>
   </g>
   <g id="matplotlib.axis_2">
    <g id="ytick_1">
     <g id="line2d_6">
      <defs>
       <path id="m8f4e37c146" d="M 0 0 
L -3.5 0 
" style="stroke: #000000; stroke-width: 0.8"/>
      </defs>
      <g>
       <use xlink:href="#m8f4e37c146" x="41.570938" y="307.637513" style="stroke: #000000; stroke-width: 0.8"/>
      </g>
     </g>
     <g id="text_5">
      <!-- 0 -->
      <g transform="translate(28.208438 311.436732) scale(0.1 -0.1)">
       <defs>
        <path id="DejaVuSans-30" d="M 2034 4250 
Q 1547 4250 1301 3770 
Q 1056 3291 1056 2328 
Q 1056 1369 1301 889 
Q 1547 409 2034 409 
Q 2525 409 2770 889 
Q 3016 1369 3016 2328 
Q 3016 3291 2770 3770 
Q 2525 4250 2034 4250 
z
M 2034 4750 
Q 2819 4750 3233 4129 
Q 3647 3509 3647 2328 
Q 3647 1150 3233 529 
Q 2819 -91 2034 -91 
Q 1250 -91 836 529 
Q 422 1150 422 2328 
Q 422 3509 836 4129 
Q 1250 4750 2034 4750 
z
" transform="scale(0.015625)"/>
       </defs>
       <use xlink:href="#DejaVuSans-30"/>
      </g>
     </g>
    </g>
    <g id="ytick_2">
     <g id="line2d_7">
      <g>
       <use xlink:href="#m8f4e37c146" x="41.570938" y="250.449879" style="stroke: #000000; stroke-width: 0.8"/>
      </g>
     </g>
     <g id="text_6">
      <!-- 20 -->
      <g transform="translate(21.845938 254.249098) scale(0.1 -0.1)">
       <defs>
        <path id="DejaVuSans-32" d="M 1228 531 
L 3431 531 
L 3431 0 
L 469 0 
L 469 531 
Q 828 903 1448 1529 
Q 2069 2156 2228 2338 
Q 2531 2678 2651 2914 
Q 2772 3150 2772 3378 
Q 2772 3750 2511 3984 
Q 2250 4219 1831 4219 
Q 1534 4219 1204 4116 
Q 875 4013 500 3803 
L 500 4441 
Q 881 4594 1212 4672 
Q 1544 4750 1819 4750 
Q 2544 4750 2975 4387 
Q 3406 4025 3406 3419 
Q 3406 3131 3298 2873 
Q 3191 2616 2906 2266 
Q 2828 2175 2409 1742 
Q 1991 1309 1228 531 
z
" transform="scale(0.015625)"/>
       </defs>
       <use xlink:href="#DejaVuSans-32"/>
       <use xlink:href="#DejaVuSans-30" x="63.623047"/>
      </g>
     </g>
    </g>
    <g id="ytick_3">
     <g id="line2d_8">
      <g>
       <use xlink:href="#m8f4e37c146" x="41.570938" y="193.262244" style="stroke: #000000; stroke-width: 0.8"/>
      </g>
     </g>
     <g id="text_7">
      <!-- 40 -->
      <g transform="translate(21.845938 197.061463) scale(0.1 -0.1)">
       <defs>
        <path id="DejaVuSans-34" d="M 2419 4116 
L 825 1625 
L 2419 1625 
L 2419 4116 
z
M 2253 4666 
L 3047 4666 
L 3047 1625 
L 3713 1625 
L 3713 1100 
L 3047 1100 
L 3047 0 
L 2419 0 
L 2419 1100 
L 313 1100 
L 313 1709 
L 2253 4666 
z
" transform="scale(0.015625)"/>
       </defs>
       <use xlink:href="#DejaVuSans-34"/>
       <use xlink:href="#DejaVuSans-30" x="63.623047"/>
      </g>
     </g>
    </g>
    <g id="ytick_4">
     <g id="line2d_9">
      <g>
       <use xlink:href="#m8f4e37c146" x="41.570938" y="136.07461" style="stroke: #000000; stroke-width: 0.8"/>
      </g>
     </g>
     <g id="text_8">
      <!-- 60 -->
      <g transform="translate(21.845938 139.873829) scale(0.1 -0.1)">
       <defs>
        <path id="DejaVuSans-36" d="M 2113 2584 
Q 1688 2584 1439 2293 
Q 1191 2003 1191 1497 
Q 1191 994 1439 701 
Q 1688 409 2113 409 
Q 2538 409 2786 701 
Q 3034 994 3034 1497 
Q 3034 2003 2786 2293 
Q 2538 2584 2113 2584 
z
M 3366 4563 
L 3366 3988 
Q 3128 4100 2886 4159 
Q 2644 4219 2406 4219 
Q 1781 4219 1451 3797 
Q 1122 3375 1075 2522 
Q 1259 2794 1537 2939 
Q 1816 3084 2150 3084 
Q 2853 3084 3261 2657 
Q 3669 2231 3669 1497 
Q 3669 778 3244 343 
Q 2819 -91 2113 -91 
Q 1303 -91 875 529 
Q 447 1150 447 2328 
Q 447 3434 972 4092 
Q 1497 4750 2381 4750 
Q 2619 4750 2861 4703 
Q 3103 4656 3366 4563 
z
" transform="scale(0.015625)"/>
       </defs>
       <use xlink:href="#DejaVuSans-36"/>
       <use xlink:href="#DejaVuSans-30" x="63.623047"/>
      </g>
     </g>
    </g>
    <g id="ytick_5">
     <g id="line2d_10">
      <g>
       <use xlink:href="#m8f4e37c146" x="41.570938" y="78.886976" style="stroke: #000000; stroke-width: 0.8"/>
      </g>
     </g>
     <g id="text_9">
      <!-- 80 -->
      <g transform="translate(21.845938 82.686195) scale(0.1 -0.1)">
       <defs>
        <path id="DejaVuSans-38" d="M 2034 2216 
Q 1584 2216 1326 1975 
Q 1069 1734 1069 1313 
Q 1069 891 1326 650 
Q 1584 409 2034 409 
Q 2484 409 2743 651 
Q 3003 894 3003 1313 
Q 3003 1734 2745 1975 
Q 2488 2216 2034 2216 
z
M 1403 2484 
Q 997 2584 770 2862 
Q 544 3141 544 3541 
Q 544 4100 942 4425 
Q 1341 4750 2034 4750 
Q 2731 4750 3128 4425 
Q 3525 4100 3525 3541 
Q 3525 3141 3298 2862 
Q 3072 2584 2669 2484 
Q 3125 2378 3379 2068 
Q 3634 1759 3634 1313 
Q 3634 634 3220 271 
Q 2806 -91 2034 -91 
Q 1263 -91 848 271 
Q 434 634 434 1313 
Q 434 1759 690 2068 
Q 947 2378 1403 2484 
z
M 1172 3481 
Q 1172 3119 1398 2916 
Q 1625 2713 2034 2713 
Q 2441 2713 2670 2916 
Q 2900 3119 2900 3481 
Q 2900 3844 2670 4047 
Q 2441 4250 2034 4250 
Q 1625 4250 1398 4047 
Q 1172 3844 1172 3481 
z
" transform="scale(0.015625)"/>
       </defs>
       <use xlink:href="#DejaVuSans-38"/>
       <use xlink:href="#DejaVuSans-30" x="63.623047"/>
      </g>
     </g>
    </g>
    <g id="text_10">
     <!-- Accuracy (%) -->
     <g transform="translate(15.558281 208.193366) rotate(-90) scale(0.11 -0.11)">
      <defs>
       <path id="DejaVuSans-41" d="M 2188 4044 
L 1331 1722 
L 3047 1722 
L 2188 4044 
z
M 1831 4666 
L 2547 4666 
L 4325 0 
L 3669 0 
L 3244 1197 
L 1141 1197 
L 716 0 
L 50 0 
L 1831 4666 
z
" transform="scale(0.015625)"/>
       <path id="DejaVuSans-63" d="M 3122 3366 
L 3122 2828 
Q 2878 2963 2633 3030 
Q 2388 3097 2138 3097 
Q 1578 3097 1268 2742 
Q 959 2388 959 1747 
Q 959 1106 1268 751 
Q 1578 397 2138 397 
Q 2388 397 2633 464 
Q 2878 531 3122 666 
L 3122 134 
Q 2881 22 2623 -34 
Q 2366 -91 2075 -91 
Q 1284 -91 818 406 
Q 353 903 353 1747 
Q 353 2603 823 3093 
Q 1294 3584 2113 3584 
Q 2378 3584 2631 3529 
Q 2884 3475 3122 3366 
z
" transform="scale(0.015625)"/>
       <path id="DejaVuSans-75" d="M 544 1381 
L 544 3500 
L 1119 3500 
L 1119 1403 
Q 1119 906 1312 657 
Q 1506 409 1894 409 
Q 2359 409 2629 706 
Q 2900 1003 2900 1516 
L 2900 3500 
L 3475 3500 
L 3475 0 
L 2900 0 
L 2900 538 
Q 2691 219 2414 64 
Q 2138 -91 1772 -91 
Q 1169 -91 856 284 
Q 544 659 544 1381 
z
M 1991 3584 
L 1991 3584 
z
" transform="scale(0.015625)"/>
       <path id="DejaVuSans-72" d="M 2631 2963 
Q 2534 3019 2420 3045 
Q 2306 3072 2169 3072 
Q 1681 3072 1420 2755 
Q 1159 2438 1159 1844 
L 1159 0 
L 581 0 
L 581 3500 
L 1159 3500 
L 1159 2956 
Q 1341 3275 1631 3429 
Q 1922 3584 2338 3584 
Q 2397 3584 2469 3576 
Q 2541 3569 2628 3553 
L 2631 2963 
z
" transform="scale(0.015625)"/>
       <path id="DejaVuSans-61" d="M 2194 1759 
Q 1497 1759 1228 1600 
Q 959 1441 959 1056 
Q 959 750 1161 570 
Q 1363 391 1709 391 
Q 2188 391 2477 730 
Q 2766 1069 2766 1631 
L 2766 1759 
L 2194 1759 
z
M 3341 1997 
L 3341 0 
L 2766 0 
L 2766 531 
Q 2569 213 2275 61 
Q 1981 -91 1556 -91 
Q 1019 -91 701 211 
Q 384 513 384 1019 
Q 384 1609 779 1909 
Q 1175 2209 1959 2209 
L 2766 2209 
L 2766 2266 
Q 2766 2663 2505 2880 
Q 2244 3097 1772 3097 
Q 1472 3097 1187 3025 
Q 903 2953 641 2809 
L 641 3341 
Q 956 3463 1253 3523 
Q 1550 3584 1831 3584 
Q 2591 3584 2966 3190 
Q 3341 2797 3341 1997 
z
" transform="scale(0.015625)"/>
       <path id="DejaVuSans-79" d="M 2059 -325 
Q 1816 -950 1584 -1140 
Q 1353 -1331 966 -1331 
L 506 -1331 
L 506 -850 
L 844 -850 
Q 1081 -850 1212 -737 
Q 1344 -625 1503 -206 
L 1606 56 
L 191 3500 
L 800 3500 
L 1894 763 
L 2988 3500 
L 3597 3500 
L 2059 -325 
z
" transform="scale(0.015625)"/>
       <path id="DejaVuSans-20" transform="scale(0.015625)"/>
       <path id="DejaVuSans-28" d="M 1984 4856 
Q 1566 4138 1362 3434 
Q 1159 2731 1159 2009 
Q 1159 1288 1364 580 
Q 1569 -128 1984 -844 
L 1484 -844 
Q 1016 -109 783 600 
Q 550 1309 550 2009 
Q 550 2706 781 3412 
Q 1013 4119 1484 4856 
L 1984 4856 
z
" transform="scale(0.015625)"/>
       <path id="DejaVuSans-25" d="M 4653 2053 
Q 4381 2053 4226 1822 
Q 4072 1591 4072 1178 
Q 4072 772 4226 539 
Q 4381 306 4653 306 
Q 4919 306 5073 539 
Q 5228 772 5228 1178 
Q 5228 1588 5073 1820 
Q 4919 2053 4653 2053 
z
M 4653 2450 
Q 5147 2450 5437 2106 
Q 5728 1763 5728 1178 
Q 5728 594 5436 251 
Q 5144 -91 4653 -91 
Q 4153 -91 3862 251 
Q 3572 594 3572 1178 
Q 3572 1766 3864 2108 
Q 4156 2450 4653 2450 
z
M 1428 4353 
Q 1159 4353 1004 4120 
Q 850 3888 850 3481 
Q 850 3069 1003 2837 
Q 1156 2606 1428 2606 
Q 1700 2606 1854 2837 
Q 2009 3069 2009 3481 
Q 2009 3884 1853 4118 
Q 1697 4353 1428 4353 
z
M 4250 4750 
L 4750 4750 
L 1831 -91 
L 1331 -91 
L 4250 4750 
z
M 1428 4750 
Q 1922 4750 2215 4408 
Q 2509 4066 2509 3481 
Q 2509 2891 2217 2550 
Q 1925 2209 1428 2209 
Q 931 2209 642 2551 
Q 353 2894 353 3481 
Q 353 4063 643 4406 
Q 934 4750 1428 4750 
z
" transform="scale(0.015625)"/>
       <path id="DejaVuSans-29" d="M 513 4856 
L 1013 4856 
Q 1481 4119 1714 3412 
Q 1947 2706 1947 2009 
Q 1947 1309 1714 600 
Q 1481 -109 1013 -844 
L 513 -844 
Q 928 -128 1133 580 
Q 1338 1288 1338 2009 
Q 1338 2731 1133 3434 
Q 928 4138 513 4856 
z
" transform="scale(0.015625)"/>
      </defs>
      <use xlink:href="#DejaVuSans-41"/>
      <use xlink:href="#DejaVuSans-63" x="66.658203"/>
      <use xlink:href="#DejaVuSans-63" x="121.638672"/>
      <use xlink:href="#DejaVuSans-75" x="176.619141"/>
      <use xlink:href="#DejaVuSans-72" x="239.998047"/>
      <use xlink:href="#DejaVuSans-61" x="281.111328"/>
      <use xlink:href="#DejaVuSans-63" x="342.390625"/>
      <use xlink:href="#DejaVuSans-79" x="397.371094"/>
      <use xlink:href="#DejaVuSans-20" x="456.550781"/>
      <use xlink:href="#DejaVuSans-28" x="488.337891"/>
      <use xlink:href="#DejaVuSans-25" x="527.351562"/>
      <use xlink:href="#DejaVuSans-29" x="622.371094"/>
     </g>
    </g>
   </g>
   <g id="line2d_11">
    <path d="M 88.559687 114.321946 
L 88.559687 111.462564 
L 166.874271 111.462564 
L 166.874271 114.321946 
" clip-path="url(#p1c3f1735bc)" style="fill: none; stroke: #333333; stroke-linecap: square"/>
   </g>
   <g id="line2d_12">
    <path d="M 292.177604 91.675437 
L 292.177604 88.816055 
L 370.492188 88.816055 
L 370.492188 91.675437 
" clip-path="url(#p1c3f1735bc)" style="fill: none; stroke: #333333; stroke-linecap: square"/>
   </g>
   <g id="patch_3">
    <path d="M 41.570938 307.637513 
L 41.570938 35.99625 
" style="fill: none; stroke: #000000; stroke-width: 0.8; stroke-linejoin: miter; stroke-linecap: square"/>
   </g>
   <g id="patch_4">
    <path d="M 41.570937 307.637513 
L 417.480937 307.637513 
" style="fill: none; stroke: #000000; stroke-width: 0.8; stroke-linejoin: miter; stroke-linecap: square"/>
   </g>
   <g id="patch_5">
    <path d="M 61.149583 307.637513 
L 115.969792 307.637513 
L 115.969792 152.997481 
L 61.149583 152.997481 
z
" clip-path="url(#p1c3f1735bc)" style="fill: #1a3a8b; opacity: 0.85; stroke: #ffffff; stroke-width: 0.5; stroke-linejoin: miter"/>
   </g>
   <g id="text_11">
    <!-- *** -->
    <g style="fill: #111111" transform="translate(79.930703 119.182744) scale(0.11 -0.11)">
     <defs>
      <path id="DejaVuSans-Bold-2a" d="M 3219 3803 
L 2188 3263 
L 3219 2719 
L 2981 2278 
L 1941 2853 
L 1941 1778 
L 1409 1778 
L 1409 2853 
L 366 2278 
L 128 2719 
L 1172 3263 
L 128 3803 
L 366 4244 
L 1409 3675 
L 1409 4750 
L 1941 4750 
L 1941 3675 
L 2981 4244 
L 3219 3803 
z
" transform="scale(0.015625)"/>
     </defs>
     <use xlink:href="#DejaVuSans-Bold-2a"/>
     <use xlink:href="#DejaVuSans-Bold-2a" x="52.294922"/>
     <use xlink:href="#DejaVuSans-Bold-2a" x="104.589844"/>
    </g>
   </g>
   <g id="text_12">
    <!-- n=98 -->
    <g style="fill: #ffffff" transform="translate(77.529414 294.640221) scale(0.075 -0.075)">
     <defs>
      <path id="DejaVuSans-Bold-6e" d="M 4056 2131 
L 4056 0 
L 2931 0 
L 2931 347 
L 2931 1631 
Q 2931 2084 2911 2256 
Q 2891 2428 2841 2509 
Q 2775 2619 2662 2680 
Q 2550 2741 2406 2741 
Q 2056 2741 1856 2470 
Q 1656 2200 1656 1722 
L 1656 0 
L 538 0 
L 538 3500 
L 1656 3500 
L 1656 2988 
Q 1909 3294 2193 3439 
Q 2478 3584 2822 3584 
Q 3428 3584 3742 3212 
Q 4056 2841 4056 2131 
z
" transform="scale(0.015625)"/>
      <path id="DejaVuSans-Bold-3d" d="M 678 3084 
L 4684 3084 
L 4684 2350 
L 678 2350 
L 678 3084 
z
M 678 1663 
L 4684 1663 
L 4684 922 
L 678 922 
L 678 1663 
z
" transform="scale(0.015625)"/>
      <path id="DejaVuSans-Bold-39" d="M 641 103 
L 641 966 
Q 928 831 1190 764 
Q 1453 697 1709 697 
Q 2247 697 2547 995 
Q 2847 1294 2900 1881 
Q 2688 1725 2447 1647 
Q 2206 1569 1925 1569 
Q 1209 1569 770 1986 
Q 331 2403 331 3084 
Q 331 3838 820 4291 
Q 1309 4744 2131 4744 
Q 3044 4744 3544 4128 
Q 4044 3513 4044 2388 
Q 4044 1231 3459 570 
Q 2875 -91 1856 -91 
Q 1528 -91 1228 -42 
Q 928 6 641 103 
z
M 2125 2350 
Q 2441 2350 2600 2554 
Q 2759 2759 2759 3169 
Q 2759 3575 2600 3781 
Q 2441 3988 2125 3988 
Q 1809 3988 1650 3781 
Q 1491 3575 1491 3169 
Q 1491 2759 1650 2554 
Q 1809 2350 2125 2350 
z
" transform="scale(0.015625)"/>
      <path id="DejaVuSans-Bold-38" d="M 2228 2088 
Q 1891 2088 1709 1903 
Q 1528 1719 1528 1375 
Q 1528 1031 1709 848 
Q 1891 666 2228 666 
Q 2563 666 2741 848 
Q 2919 1031 2919 1375 
Q 2919 1722 2741 1905 
Q 2563 2088 2228 2088 
z
M 1350 2484 
Q 925 2613 709 2878 
Q 494 3144 494 3541 
Q 494 4131 934 4440 
Q 1375 4750 2228 4750 
Q 3075 4750 3515 4442 
Q 3956 4134 3956 3541 
Q 3956 3144 3739 2878 
Q 3522 2613 3097 2484 
Q 3572 2353 3814 2058 
Q 4056 1763 4056 1313 
Q 4056 619 3595 264 
Q 3134 -91 2228 -91 
Q 1319 -91 855 264 
Q 391 619 391 1313 
Q 391 1763 633 2058 
Q 875 2353 1350 2484 
z
M 1631 3419 
Q 1631 3141 1786 2991 
Q 1941 2841 2228 2841 
Q 2509 2841 2662 2991 
Q 2816 3141 2816 3419 
Q 2816 3697 2662 3845 
Q 2509 3994 2228 3994 
Q 1941 3994 1786 3844 
Q 1631 3694 1631 3419 
z
" transform="scale(0.015625)"/>
     </defs>
     <use xlink:href="#DejaVuSans-Bold-6e"/>
     <use xlink:href="#DejaVuSans-Bold-3d" x="71.191406"/>
     <use xlink:href="#DejaVuSans-Bold-39" x="154.980469"/>
     <use xlink:href="#DejaVuSans-Bold-38" x="224.560547"/>
    </g>
   </g>
   <g id="patch_6">
    <path d="M 139.464167 307.637513 
L 194.284375 307.637513 
L 194.284375 217.679437 
L 139.464167 217.679437 
z
" clip-path="url(#p1c3f1735bc)" style="fill: #884400; opacity: 0.85; stroke: #ffffff; stroke-width: 0.5; stroke-linejoin: miter"/>
   </g>
   <g id="text_13">
    <!-- *** -->
    <g style="fill: #111111" transform="translate(158.245286 181.81115) scale(0.11 -0.11)">
     <use xlink:href="#DejaVuSans-Bold-2a"/>
     <use xlink:href="#DejaVuSans-Bold-2a" x="52.294922"/>
     <use xlink:href="#DejaVuSans-Bold-2a" x="104.589844"/>
    </g>
   </g>
   <g id="text_14">
    <!-- n=89 -->
    <g style="fill: #ffffff" transform="translate(155.843997 294.640221) scale(0.075 -0.075)">
     <use xlink:href="#DejaVuSans-Bold-6e"/>
     <use xlink:href="#DejaVuSans-Bold-3d" x="71.191406"/>
     <use xlink:href="#DejaVuSans-Bold-38" x="154.980469"/>
     <use xlink:href="#DejaVuSans-Bold-39" x="224.560547"/>
    </g>
   </g>
   <g id="patch_7">
    <path d="M 264.7675 307.637513 
L 319.587708 307.637513 
L 319.587708 128.926156 
L 264.7675 128.926156 
z
" clip-path="url(#p1c3f1735bc)" style="fill: #1a3a8b; opacity: 0.85; stroke: #ffffff; stroke-width: 0.5; stroke-linejoin: miter"/>
   </g>
   <g id="text_15">
    <!-- *** -->
    <g style="fill: #111111" transform="translate(283.54862 96.536235) scale(0.11 -0.11)">
     <use xlink:href="#DejaVuSans-Bold-2a"/>
     <use xlink:href="#DejaVuSans-Bold-2a" x="52.294922"/>
     <use xlink:href="#DejaVuSans-Bold-2a" x="104.589844"/>
    </g>
   </g>
   <g id="text_16">
    <!-- n=96 -->
    <g style="fill: #ffffff" transform="translate(281.147331 294.640221) scale(0.075 -0.075)">
     <defs>
      <path id="DejaVuSans-Bold-36" d="M 2316 2303 
Q 2000 2303 1842 2098 
Q 1684 1894 1684 1484 
Q 1684 1075 1842 870 
Q 2000 666 2316 666 
Q 2634 666 2792 870 
Q 2950 1075 2950 1484 
Q 2950 1894 2792 2098 
Q 2634 2303 2316 2303 
z
M 3803 4544 
L 3803 3681 
Q 3506 3822 3243 3889 
Q 2981 3956 2731 3956 
Q 2194 3956 1894 3657 
Q 1594 3359 1544 2772 
Q 1750 2925 1990 3001 
Q 2231 3078 2516 3078 
Q 3231 3078 3670 2659 
Q 4109 2241 4109 1563 
Q 4109 813 3618 361 
Q 3128 -91 2303 -91 
Q 1394 -91 895 523 
Q 397 1138 397 2266 
Q 397 3422 980 4083 
Q 1563 4744 2578 4744 
Q 2900 4744 3203 4694 
Q 3506 4644 3803 4544 
z
" transform="scale(0.015625)"/>
     </defs>
     <use xlink:href="#DejaVuSans-Bold-6e"/>
     <use xlink:href="#DejaVuSans-Bold-3d" x="71.191406"/>
     <use xlink:href="#DejaVuSans-Bold-39" x="154.980469"/>
     <use xlink:href="#DejaVuSans-Bold-36" x="224.560547"/>
    </g>
   </g>
   <g id="patch_8">
    <path d="M 343.082083 307.637513 
L 397.902292 307.637513 
L 397.902292 237.673918 
L 343.082083 237.673918 
z
" clip-path="url(#p1c3f1735bc)" style="fill: #884400; opacity: 0.85; stroke: #ffffff; stroke-width: 0.5; stroke-linejoin: miter"/>
   </g>
   <g id="text_17">
    <!-- *** -->
    <g style="fill: #111111" transform="translate(361.863203 203.705213) scale(0.11 -0.11)">
     <use xlink:href="#DejaVuSans-Bold-2a"/>
     <use xlink:href="#DejaVuSans-Bold-2a" x="52.294922"/>
     <use xlink:href="#DejaVuSans-Bold-2a" x="104.589844"/>
    </g>
   </g>
   <g id="text_18">
    <!-- n=94 -->
    <g style="fill: #ffffff" transform="translate(359.461914 294.640221) scale(0.075 -0.075)">
     <defs>
      <path id="DejaVuSans-Bold-34" d="M 2356 3675 
L 1038 1722 
L 2356 1722 
L 2356 3675 
z
M 2156 4666 
L 3494 4666 
L 3494 1722 
L 4159 1722 
L 4159 850 
L 3494 850 
L 3494 0 
L 2356 0 
L 2356 850 
L 288 850 
L 288 1881 
L 2156 4666 
z
" transform="scale(0.015625)"/>
     </defs>
     <use xlink:href="#DejaVuSans-Bold-6e"/>
     <use xlink:href="#DejaVuSans-Bold-3d" x="71.191406"/>
     <use xlink:href="#DejaVuSans-Bold-39" x="154.980469"/>
     <use xlink:href="#DejaVuSans-Bold-34" x="224.560547"/>
    </g>
   </g>
   <g id="text_19">
    <!-- Δ=+22.6pp  ** -->
    <g style="fill: #111111" transform="translate(91.308464 108.161155) scale(0.09 -0.09)">
     <defs>
      <path id="DejaVuSans-Bold-394" d="M 4922 0 
L 31 0 
L 1759 4666 
L 3194 4666 
L 4922 0 
z
M 1559 909 
L 3384 909 
L 2478 3572 
L 1559 909 
z
" transform="scale(0.015625)"/>
      <path id="DejaVuSans-Bold-2b" d="M 3053 4013 
L 3053 2375 
L 4684 2375 
L 4684 1638 
L 3053 1638 
L 3053 0 
L 2309 0 
L 2309 1638 
L 678 1638 
L 678 2375 
L 2309 2375 
L 2309 4013 
L 3053 4013 
z
" transform="scale(0.015625)"/>
      <path id="DejaVuSans-Bold-32" d="M 1844 884 
L 3897 884 
L 3897 0 
L 506 0 
L 506 884 
L 2209 2388 
Q 2438 2594 2547 2791 
Q 2656 2988 2656 3200 
Q 2656 3528 2436 3728 
Q 2216 3928 1850 3928 
Q 1569 3928 1234 3808 
Q 900 3688 519 3450 
L 519 4475 
Q 925 4609 1322 4679 
Q 1719 4750 2100 4750 
Q 2938 4750 3402 4381 
Q 3866 4013 3866 3353 
Q 3866 2972 3669 2642 
Q 3472 2313 2841 1759 
L 1844 884 
z
" transform="scale(0.015625)"/>
      <path id="DejaVuSans-Bold-2e" d="M 653 1209 
L 1778 1209 
L 1778 0 
L 653 0 
L 653 1209 
z
" transform="scale(0.015625)"/>
      <path id="DejaVuSans-Bold-70" d="M 1656 506 
L 1656 -1331 
L 538 -1331 
L 538 3500 
L 1656 3500 
L 1656 2988 
Q 1888 3294 2169 3439 
Q 2450 3584 2816 3584 
Q 3463 3584 3878 3070 
Q 4294 2556 4294 1747 
Q 4294 938 3878 423 
Q 3463 -91 2816 -91 
Q 2450 -91 2169 54 
Q 1888 200 1656 506 
z
M 2400 2772 
Q 2041 2772 1848 2508 
Q 1656 2244 1656 1747 
Q 1656 1250 1848 986 
Q 2041 722 2400 722 
Q 2759 722 2948 984 
Q 3138 1247 3138 1747 
Q 3138 2247 2948 2509 
Q 2759 2772 2400 2772 
z
" transform="scale(0.015625)"/>
      <path id="DejaVuSans-Bold-20" transform="scale(0.015625)"/>
     </defs>
     <use xlink:href="#DejaVuSans-Bold-394"/>
     <use xlink:href="#DejaVuSans-Bold-3d" x="77.392578"/>
     <use xlink:href="#DejaVuSans-Bold-2b" x="161.181641"/>
     <use xlink:href="#DejaVuSans-Bold-32" x="244.970703"/>
     <use xlink:href="#DejaVuSans-Bold-32" x="314.550781"/>
     <use xlink:href="#DejaVuSans-Bold-2e" x="384.130859"/>
     <use xlink:href="#DejaVuSans-Bold-36" x="422.119141"/>
     <use xlink:href="#DejaVuSans-Bold-70" x="491.699219"/>
     <use xlink:href="#DejaVuSans-Bold-70" x="563.28125"/>
     <use xlink:href="#DejaVuSans-Bold-20" x="634.863281"/>
     <use xlink:href="#DejaVuSans-Bold-20" x="669.677734"/>
     <use xlink:href="#DejaVuSans-Bold-2a" x="704.492188"/>
     <use xlink:href="#DejaVuSans-Bold-2a" x="756.787109"/>
    </g>
   </g>
   <g id="text_20">
    <!-- Δ=+38.0pp  *** -->
    <g style="fill: #111111" transform="translate(292.573021 85.514645) scale(0.09 -0.09)">
     <defs>
      <path id="DejaVuSans-Bold-33" d="M 2981 2516 
Q 3453 2394 3698 2092 
Q 3944 1791 3944 1325 
Q 3944 631 3412 270 
Q 2881 -91 1863 -91 
Q 1503 -91 1142 -33 
Q 781 25 428 141 
L 428 1069 
Q 766 900 1098 814 
Q 1431 728 1753 728 
Q 2231 728 2486 893 
Q 2741 1059 2741 1369 
Q 2741 1688 2480 1852 
Q 2219 2016 1709 2016 
L 1228 2016 
L 1228 2791 
L 1734 2791 
Q 2188 2791 2409 2933 
Q 2631 3075 2631 3366 
Q 2631 3634 2415 3781 
Q 2200 3928 1806 3928 
Q 1516 3928 1219 3862 
Q 922 3797 628 3669 
L 628 4550 
Q 984 4650 1334 4700 
Q 1684 4750 2022 4750 
Q 2931 4750 3382 4451 
Q 3834 4153 3834 3553 
Q 3834 3144 3618 2883 
Q 3403 2622 2981 2516 
z
" transform="scale(0.015625)"/>
      <path id="DejaVuSans-Bold-30" d="M 2944 2338 
Q 2944 3213 2780 3570 
Q 2616 3928 2228 3928 
Q 1841 3928 1675 3570 
Q 1509 3213 1509 2338 
Q 1509 1453 1675 1090 
Q 1841 728 2228 728 
Q 2613 728 2778 1090 
Q 2944 1453 2944 2338 
z
M 4147 2328 
Q 4147 1169 3647 539 
Q 3147 -91 2228 -91 
Q 1306 -91 806 539 
Q 306 1169 306 2328 
Q 306 3491 806 4120 
Q 1306 4750 2228 4750 
Q 3147 4750 3647 4120 
Q 4147 3491 4147 2328 
z
" transform="scale(0.015625)"/>
     </defs>
     <use xlink:href="#DejaVuSans-Bold-394"/>
     <use xlink:href="#DejaVuSans-Bold-3d" x="77.392578"/>
     <use xlink:href="#DejaVuSans-Bold-2b" x="161.181641"/>
     <use xlink:href="#DejaVuSans-Bold-33" x="244.970703"/>
     <use xlink:href="#DejaVuSans-Bold-38" x="314.550781"/>
     <use xlink:href="#DejaVuSans-Bold-2e" x="384.130859"/>
     <use xlink:href="#DejaVuSans-Bold-30" x="422.119141"/>
     <use xlink:href="#DejaVuSans-Bold-70" x="491.699219"/>
     <use xlink:href="#DejaVuSans-Bold-70" x="563.28125"/>
     <use xlink:href="#DejaVuSans-Bold-20" x="634.863281"/>
     <use xlink:href="#DejaVuSans-Bold-20" x="669.677734"/>
     <use xlink:href="#DejaVuSans-Bold-2a" x="704.492188"/>
     <use xlink:href="#DejaVuSans-Bold-2a" x="756.787109"/>
     <use xlink:href="#DejaVuSans-Bold-2a" x="809.082031"/>
    </g>
   </g>
   <g id="text_21">
    <!-- Chance -->
    <g style="fill: #999999" transform="translate(190.368646 266.800234) scale(0.08 -0.08)">
     <defs>
      <path id="DejaVuSans-68" d="M 3513 2113 
L 3513 0 
L 2938 0 
L 2938 2094 
Q 2938 2591 2744 2837 
Q 2550 3084 2163 3084 
Q 1697 3084 1428 2787 
Q 1159 2491 1159 1978 
L 1159 0 
L 581 0 
L 581 4863 
L 1159 4863 
L 1159 2956 
Q 1366 3272 1645 3428 
Q 1925 3584 2291 3584 
Q 2894 3584 3203 3211 
Q 3513 2838 3513 2113 
z
" transform="scale(0.015625)"/>
      <path id="DejaVuSans-6e" d="M 3513 2113 
L 3513 0 
L 2938 0 
L 2938 2094 
Q 2938 2591 2744 2837 
Q 2550 3084 2163 3084 
Q 1697 3084 1428 2787 
Q 1159 2491 1159 1978 
L 1159 0 
L 581 0 
L 581 3500 
L 1159 3500 
L 1159 2956 
Q 1366 3272 1645 3428 
Q 1925 3584 2291 3584 
Q 2894 3584 3203 3211 
Q 3513 2838 3513 2113 
z
" transform="scale(0.015625)"/>
      <path id="DejaVuSans-65" d="M 3597 1894 
L 3597 1613 
L 953 1613 
Q 991 1019 1311 708 
Q 1631 397 2203 397 
Q 2534 397 2845 478 
Q 3156 559 3463 722 
L 3463 178 
Q 3153 47 2828 -22 
Q 2503 -91 2169 -91 
Q 1331 -91 842 396 
Q 353 884 353 1716 
Q 353 2575 817 3079 
Q 1281 3584 2069 3584 
Q 2775 3584 3186 3129 
Q 3597 2675 3597 1894 
z
M 3022 2063 
Q 3016 2534 2758 2815 
Q 2500 3097 2075 3097 
Q 1594 3097 1305 2825 
Q 1016 2553 972 2059 
L 3022 2063 
z
" transform="scale(0.015625)"/>
     </defs>
     <use xlink:href="#DejaVuSans-43"/>
     <use xlink:href="#DejaVuSans-68" x="69.824219"/>
     <use xlink:href="#DejaVuSans-61" x="133.203125"/>
     <use xlink:href="#DejaVuSans-6e" x="194.482422"/>
     <use xlink:href="#DejaVuSans-63" x="257.861328"/>
     <use xlink:href="#DejaVuSans-65" x="312.841797"/>
    </g>
   </g>
   <g id="text_22">
    <!-- N  (no swap) -->
    <g style="fill: #444444" transform="translate(92.197448 341.950094) scale(0.1 -0.1)">
     <defs>
      <path id="DejaVuSans-Bold-4e" d="M 588 4666 
L 1931 4666 
L 3628 1466 
L 3628 4666 
L 4769 4666 
L 4769 0 
L 3425 0 
L 1728 3200 
L 1728 0 
L 588 0 
L 588 4666 
z
" transform="scale(0.015625)"/>
      <path id="DejaVuSans-Bold-28" d="M 2413 -844 
L 1484 -844 
Q 1006 -72 778 623 
Q 550 1319 550 2003 
Q 550 2688 779 3389 
Q 1009 4091 1484 4856 
L 2413 4856 
Q 2013 4116 1813 3408 
Q 1613 2700 1613 2009 
Q 1613 1319 1811 609 
Q 2009 -100 2413 -844 
z
" transform="scale(0.015625)"/>
      <path id="DejaVuSans-Bold-6f" d="M 2203 2784 
Q 1831 2784 1636 2517 
Q 1441 2250 1441 1747 
Q 1441 1244 1636 976 
Q 1831 709 2203 709 
Q 2569 709 2762 976 
Q 2956 1244 2956 1747 
Q 2956 2250 2762 2517 
Q 2569 2784 2203 2784 
z
M 2203 3584 
Q 3106 3584 3614 3096 
Q 4122 2609 4122 1747 
Q 4122 884 3614 396 
Q 3106 -91 2203 -91 
Q 1297 -91 786 396 
Q 275 884 275 1747 
Q 275 2609 786 3096 
Q 1297 3584 2203 3584 
z
" transform="scale(0.015625)"/>
      <path id="DejaVuSans-Bold-73" d="M 3272 3391 
L 3272 2541 
Q 2913 2691 2578 2766 
Q 2244 2841 1947 2841 
Q 1628 2841 1473 2761 
Q 1319 2681 1319 2516 
Q 1319 2381 1436 2309 
Q 1553 2238 1856 2203 
L 2053 2175 
Q 2913 2066 3209 1816 
Q 3506 1566 3506 1031 
Q 3506 472 3093 190 
Q 2681 -91 1863 -91 
Q 1516 -91 1145 -36 
Q 775 19 384 128 
L 384 978 
Q 719 816 1070 734 
Q 1422 653 1784 653 
Q 2113 653 2278 743 
Q 2444 834 2444 1013 
Q 2444 1163 2330 1236 
Q 2216 1309 1875 1350 
L 1678 1375 
Q 931 1469 631 1722 
Q 331 1975 331 2491 
Q 331 3047 712 3315 
Q 1094 3584 1881 3584 
Q 2191 3584 2531 3537 
Q 2872 3491 3272 3391 
z
" transform="scale(0.015625)"/>
      <path id="DejaVuSans-Bold-77" d="M 225 3500 
L 1313 3500 
L 1900 1088 
L 2491 3500 
L 3425 3500 
L 4013 1113 
L 4603 3500 
L 5691 3500 
L 4769 0 
L 3547 0 
L 2956 2406 
L 2369 0 
L 1147 0 
L 225 3500 
z
" transform="scale(0.015625)"/>
      <path id="DejaVuSans-Bold-61" d="M 2106 1575 
Q 1756 1575 1579 1456 
Q 1403 1338 1403 1106 
Q 1403 894 1545 773 
Q 1688 653 1941 653 
Q 2256 653 2472 879 
Q 2688 1106 2688 1447 
L 2688 1575 
L 2106 1575 
z
M 3816 1997 
L 3816 0 
L 2688 0 
L 2688 519 
Q 2463 200 2181 54 
Q 1900 -91 1497 -91 
Q 953 -91 614 226 
Q 275 544 275 1050 
Q 275 1666 698 1953 
Q 1122 2241 2028 2241 
L 2688 2241 
L 2688 2328 
Q 2688 2594 2478 2717 
Q 2269 2841 1825 2841 
Q 1466 2841 1156 2769 
Q 847 2697 581 2553 
L 581 3406 
Q 941 3494 1303 3539 
Q 1666 3584 2028 3584 
Q 2975 3584 3395 3211 
Q 3816 2838 3816 1997 
z
" transform="scale(0.015625)"/>
      <path id="DejaVuSans-Bold-29" d="M 513 -844 
Q 913 -100 1113 609 
Q 1313 1319 1313 2009 
Q 1313 2700 1113 3408 
Q 913 4116 513 4856 
L 1441 4856 
Q 1916 4091 2145 3389 
Q 2375 2688 2375 2003 
Q 2375 1319 2147 623 
Q 1919 -72 1441 -844 
L 513 -844 
z
" transform="scale(0.015625)"/>
     </defs>
     <use xlink:href="#DejaVuSans-Bold-4e"/>
     <use xlink:href="#DejaVuSans-Bold-20" x="83.691406"/>
     <use xlink:href="#DejaVuSans-Bold-20" x="118.505859"/>
     <use xlink:href="#DejaVuSans-Bold-28" x="153.320312"/>
     <use xlink:href="#DejaVuSans-Bold-6e" x="199.023438"/>
     <use xlink:href="#DejaVuSans-Bold-6f" x="270.214844"/>
     <use xlink:href="#DejaVuSans-Bold-20" x="338.916016"/>
     <use xlink:href="#DejaVuSans-Bold-73" x="373.730469"/>
     <use xlink:href="#DejaVuSans-Bold-77" x="433.251953"/>
     <use xlink:href="#DejaVuSans-Bold-61" x="525.634766"/>
     <use xlink:href="#DejaVuSans-Bold-70" x="593.115234"/>
     <use xlink:href="#DejaVuSans-Bold-29" x="664.697266"/>
    </g>
   </g>
   <g id="text_23">
    <!-- Z  (depth swap) -->
    <g style="fill: #116688" transform="translate(286.870052 341.950094) scale(0.1 -0.1)">
     <defs>
      <path id="DejaVuSans-Bold-5a" d="M 359 4666 
L 4281 4666 
L 4281 3938 
L 1778 909 
L 4353 909 
L 4353 0 
L 288 0 
L 288 728 
L 2791 3756 
L 359 3756 
L 359 4666 
z
" transform="scale(0.015625)"/>
      <path id="DejaVuSans-Bold-64" d="M 2919 2988 
L 2919 4863 
L 4044 4863 
L 4044 0 
L 2919 0 
L 2919 506 
Q 2688 197 2409 53 
Q 2131 -91 1766 -91 
Q 1119 -91 703 423 
Q 288 938 288 1747 
Q 288 2556 703 3070 
Q 1119 3584 1766 3584 
Q 2128 3584 2408 3439 
Q 2688 3294 2919 2988 
z
M 2181 722 
Q 2541 722 2730 984 
Q 2919 1247 2919 1747 
Q 2919 2247 2730 2509 
Q 2541 2772 2181 2772 
Q 1825 2772 1636 2509 
Q 1447 2247 1447 1747 
Q 1447 1247 1636 984 
Q 1825 722 2181 722 
z
" transform="scale(0.015625)"/>
      <path id="DejaVuSans-Bold-65" d="M 4031 1759 
L 4031 1441 
L 1416 1441 
Q 1456 1047 1700 850 
Q 1944 653 2381 653 
Q 2734 653 3104 758 
Q 3475 863 3866 1075 
L 3866 213 
Q 3469 63 3072 -14 
Q 2675 -91 2278 -91 
Q 1328 -91 801 392 
Q 275 875 275 1747 
Q 275 2603 792 3093 
Q 1309 3584 2216 3584 
Q 3041 3584 3536 3087 
Q 4031 2591 4031 1759 
z
M 2881 2131 
Q 2881 2450 2695 2645 
Q 2509 2841 2209 2841 
Q 1884 2841 1681 2658 
Q 1478 2475 1428 2131 
L 2881 2131 
z
" transform="scale(0.015625)"/>
      <path id="DejaVuSans-Bold-74" d="M 1759 4494 
L 1759 3500 
L 2913 3500 
L 2913 2700 
L 1759 2700 
L 1759 1216 
Q 1759 972 1856 886 
Q 1953 800 2241 800 
L 2816 800 
L 2816 0 
L 1856 0 
Q 1194 0 917 276 
Q 641 553 641 1216 
L 641 2700 
L 84 2700 
L 84 3500 
L 641 3500 
L 641 4494 
L 1759 4494 
z
" transform="scale(0.015625)"/>
      <path id="DejaVuSans-Bold-68" d="M 4056 2131 
L 4056 0 
L 2931 0 
L 2931 347 
L 2931 1625 
Q 2931 2084 2911 2256 
Q 2891 2428 2841 2509 
Q 2775 2619 2662 2680 
Q 2550 2741 2406 2741 
Q 2056 2741 1856 2470 
Q 1656 2200 1656 1722 
L 1656 0 
L 538 0 
L 538 4863 
L 1656 4863 
L 1656 2988 
Q 1909 3294 2193 3439 
Q 2478 3584 2822 3584 
Q 3428 3584 3742 3212 
Q 4056 2841 4056 2131 
z
" transform="scale(0.015625)"/>
     </defs>
     <use xlink:href="#DejaVuSans-Bold-5a"/>
     <use xlink:href="#DejaVuSans-Bold-20" x="72.509766"/>
     <use xlink:href="#DejaVuSans-Bold-20" x="107.324219"/>
     <use xlink:href="#DejaVuSans-Bold-28" x="142.138672"/>
     <use xlink:href="#DejaVuSans-Bold-64" x="187.841797"/>
     <use xlink:href="#DejaVuSans-Bold-65" x="259.423828"/>
     <use xlink:href="#DejaVuSans-Bold-70" x="327.246094"/>
     <use xlink:href="#DejaVuSans-Bold-74" x="398.828125"/>
     <use xlink:href="#DejaVuSans-Bold-68" x="446.630859"/>
     <use xlink:href="#DejaVuSans-Bold-20" x="517.822266"/>
     <use xlink:href="#DejaVuSans-Bold-73" x="552.636719"/>
     <use xlink:href="#DejaVuSans-Bold-77" x="612.158203"/>
     <use xlink:href="#DejaVuSans-Bold-61" x="704.541016"/>
     <use xlink:href="#DejaVuSans-Bold-70" x="772.021484"/>
     <use xlink:href="#DejaVuSans-Bold-29" x="843.603516"/>
    </g>
   </g>
   <g id="text_24">
    <!-- DecoupledDots — N vs Z conditions -->
    <g transform="translate(129.736094 14.798437) scale(0.1 -0.1)">
     <defs>
      <path id="DejaVuSans-Bold-44" d="M 1791 3756 
L 1791 909 
L 2222 909 
Q 2959 909 3348 1275 
Q 3738 1641 3738 2338 
Q 3738 3031 3350 3393 
Q 2963 3756 2222 3756 
L 1791 3756 
z
M 588 4666 
L 1856 4666 
Q 2919 4666 3439 4514 
Q 3959 4363 4331 4000 
Q 4659 3684 4818 3271 
Q 4978 2859 4978 2338 
Q 4978 1809 4818 1395 
Q 4659 981 4331 666 
Q 3956 303 3431 151 
Q 2906 0 1856 0 
L 588 0 
L 588 4666 
z
" transform="scale(0.015625)"/>
      <path id="DejaVuSans-Bold-63" d="M 3366 3391 
L 3366 2478 
Q 3138 2634 2908 2709 
Q 2678 2784 2431 2784 
Q 1963 2784 1702 2511 
Q 1441 2238 1441 1747 
Q 1441 1256 1702 982 
Q 1963 709 2431 709 
Q 2694 709 2930 787 
Q 3166 866 3366 1019 
L 3366 103 
Q 3103 6 2833 -42 
Q 2563 -91 2291 -91 
Q 1344 -91 809 395 
Q 275 881 275 1747 
Q 275 2613 809 3098 
Q 1344 3584 2291 3584 
Q 2566 3584 2833 3536 
Q 3100 3488 3366 3391 
z
" transform="scale(0.015625)"/>
      <path id="DejaVuSans-Bold-75" d="M 500 1363 
L 500 3500 
L 1625 3500 
L 1625 3150 
Q 1625 2866 1622 2436 
Q 1619 2006 1619 1863 
Q 1619 1441 1641 1255 
Q 1663 1069 1716 984 
Q 1784 875 1895 815 
Q 2006 756 2150 756 
Q 2500 756 2700 1025 
Q 2900 1294 2900 1772 
L 2900 3500 
L 4019 3500 
L 4019 0 
L 2900 0 
L 2900 506 
Q 2647 200 2364 54 
Q 2081 -91 1741 -91 
Q 1134 -91 817 281 
Q 500 653 500 1363 
z
" transform="scale(0.015625)"/>
      <path id="DejaVuSans-Bold-6c" d="M 538 4863 
L 1656 4863 
L 1656 0 
L 538 0 
L 538 4863 
z
" transform="scale(0.015625)"/>
      <path id="DejaVuSans-Bold-2014" d="M 344 2156 
L 6056 2156 
L 6056 1350 
L 344 1350 
L 344 2156 
z
" transform="scale(0.015625)"/>
      <path id="DejaVuSans-Bold-76" d="M 97 3500 
L 1216 3500 
L 2088 1081 
L 2956 3500 
L 4078 3500 
L 2700 0 
L 1472 0 
L 97 3500 
z
" transform="scale(0.015625)"/>
      <path id="DejaVuSans-Bold-69" d="M 538 3500 
L 1656 3500 
L 1656 0 
L 538 0 
L 538 3500 
z
M 538 4863 
L 1656 4863 
L 1656 3950 
L 538 3950 
L 538 4863 
z
" transform="scale(0.015625)"/>
     </defs>
     <use xlink:href="#DejaVuSans-Bold-44"/>
     <use xlink:href="#DejaVuSans-Bold-65" x="83.007812"/>
     <use xlink:href="#DejaVuSans-Bold-63" x="150.830078"/>
     <use xlink:href="#DejaVuSans-Bold-6f" x="210.107422"/>
     <use xlink:href="#DejaVuSans-Bold-75" x="278.808594"/>
     <use xlink:href="#DejaVuSans-Bold-70" x="350"/>
     <use xlink:href="#DejaVuSans-Bold-6c" x="421.582031"/>
     <use xlink:href="#DejaVuSans-Bold-65" x="455.859375"/>
     <use xlink:href="#DejaVuSans-Bold-64" x="523.681641"/>
     <use xlink:href="#DejaVuSans-Bold-44" x="595.263672"/>
     <use xlink:href="#DejaVuSans-Bold-6f" x="678.271484"/>
     <use xlink:href="#DejaVuSans-Bold-74" x="746.972656"/>
     <use xlink:href="#DejaVuSans-Bold-73" x="794.775391"/>
     <use xlink:href="#DejaVuSans-Bold-20" x="854.296875"/>
     <use xlink:href="#DejaVuSans-Bold-2014" x="889.111328"/>
     <use xlink:href="#DejaVuSans-Bold-20" x="989.111328"/>
     <use xlink:href="#DejaVuSans-Bold-4e" x="1023.925781"/>
     <use xlink:href="#DejaVuSans-Bold-20" x="1107.617188"/>
     <use xlink:href="#DejaVuSans-Bold-76" x="1142.431641"/>
     <use xlink:href="#DejaVuSans-Bold-73" x="1207.617188"/>
     <use xlink:href="#DejaVuSans-Bold-20" x="1267.138672"/>
     <use xlink:href="#DejaVuSans-Bold-5a" x="1301.953125"/>
     <use xlink:href="#DejaVuSans-Bold-20" x="1374.462891"/>
     <use xlink:href="#DejaVuSans-Bold-63" x="1409.277344"/>
     <use xlink:href="#DejaVuSans-Bold-6f" x="1468.554688"/>
     <use xlink:href="#DejaVuSans-Bold-6e" x="1537.255859"/>
     <use xlink:href="#DejaVuSans-Bold-64" x="1608.447266"/>
     <use xlink:href="#DejaVuSans-Bold-69" x="1680.029297"/>
     <use xlink:href="#DejaVuSans-Bold-74" x="1714.306641"/>
     <use xlink:href="#DejaVuSans-Bold-69" x="1762.109375"/>
     <use xlink:href="#DejaVuSans-Bold-6f" x="1796.386719"/>
     <use xlink:href="#DejaVuSans-Bold-6e" x="1865.087891"/>
     <use xlink:href="#DejaVuSans-Bold-73" x="1936.279297"/>
    </g>
    <!-- Combined clean sessions  ·  n=762  ·  Wilson 95% CI  ·  χ² vs chance -->
    <g transform="translate(39.293906 25.99625) scale(0.1 -0.1)">
     <defs>
      <path id="DejaVuSans-Bold-43" d="M 4288 256 
Q 3956 84 3597 -3 
Q 3238 -91 2847 -91 
Q 1681 -91 1000 561 
Q 319 1213 319 2328 
Q 319 3447 1000 4098 
Q 1681 4750 2847 4750 
Q 3238 4750 3597 4662 
Q 3956 4575 4288 4403 
L 4288 3438 
Q 3953 3666 3628 3772 
Q 3303 3878 2944 3878 
Q 2300 3878 1931 3465 
Q 1563 3053 1563 2328 
Q 1563 1606 1931 1193 
Q 2300 781 2944 781 
Q 3303 781 3628 887 
Q 3953 994 4288 1222 
L 4288 256 
z
" transform="scale(0.015625)"/>
      <path id="DejaVuSans-Bold-6d" d="M 3781 2919 
Q 3994 3244 4286 3414 
Q 4578 3584 4928 3584 
Q 5531 3584 5847 3212 
Q 6163 2841 6163 2131 
L 6163 0 
L 5038 0 
L 5038 1825 
Q 5041 1866 5042 1909 
Q 5044 1953 5044 2034 
Q 5044 2406 4934 2573 
Q 4825 2741 4581 2741 
Q 4263 2741 4089 2478 
Q 3916 2216 3909 1719 
L 3909 0 
L 2784 0 
L 2784 1825 
Q 2784 2406 2684 2573 
Q 2584 2741 2328 2741 
Q 2006 2741 1831 2477 
Q 1656 2213 1656 1722 
L 1656 0 
L 531 0 
L 531 3500 
L 1656 3500 
L 1656 2988 
Q 1863 3284 2130 3434 
Q 2397 3584 2719 3584 
Q 3081 3584 3359 3409 
Q 3638 3234 3781 2919 
z
" transform="scale(0.015625)"/>
      <path id="DejaVuSans-Bold-62" d="M 2400 722 
Q 2759 722 2948 984 
Q 3138 1247 3138 1747 
Q 3138 2247 2948 2509 
Q 2759 2772 2400 2772 
Q 2041 2772 1848 2508 
Q 1656 2244 1656 1747 
Q 1656 1250 1848 986 
Q 2041 722 2400 722 
z
M 1656 2988 
Q 1888 3294 2169 3439 
Q 2450 3584 2816 3584 
Q 3463 3584 3878 3070 
Q 4294 2556 4294 1747 
Q 4294 938 3878 423 
Q 3463 -91 2816 -91 
Q 2450 -91 2169 54 
Q 1888 200 1656 506 
L 1656 0 
L 538 0 
L 538 4863 
L 1656 4863 
L 1656 2988 
z
" transform="scale(0.015625)"/>
      <path id="DejaVuSans-Bold-b7" d="M 653 2828 
L 1778 2828 
L 1778 1619 
L 653 1619 
L 653 2828 
z
" transform="scale(0.015625)"/>
      <path id="DejaVuSans-Bold-37" d="M 428 4666 
L 3944 4666 
L 3944 3988 
L 2125 0 
L 953 0 
L 2675 3781 
L 428 3781 
L 428 4666 
z
" transform="scale(0.015625)"/>
      <path id="DejaVuSans-Bold-57" d="M 191 4666 
L 1344 4666 
L 2150 1275 
L 2950 4666 
L 4109 4666 
L 4909 1275 
L 5716 4666 
L 6859 4666 
L 5759 0 
L 4372 0 
L 3525 3547 
L 2688 0 
L 1300 0 
L 191 4666 
z
" transform="scale(0.015625)"/>
      <path id="DejaVuSans-Bold-35" d="M 678 4666 
L 3669 4666 
L 3669 3781 
L 1638 3781 
L 1638 3059 
Q 1775 3097 1914 3117 
Q 2053 3138 2203 3138 
Q 3056 3138 3531 2711 
Q 4006 2284 4006 1522 
Q 4006 766 3489 337 
Q 2972 -91 2053 -91 
Q 1656 -91 1267 -14 
Q 878 63 494 219 
L 494 1166 
Q 875 947 1217 837 
Q 1559 728 1863 728 
Q 2300 728 2551 942 
Q 2803 1156 2803 1522 
Q 2803 1891 2551 2103 
Q 2300 2316 1863 2316 
Q 1603 2316 1309 2248 
Q 1016 2181 678 2041 
L 678 4666 
z
" transform="scale(0.015625)"/>
      <path id="DejaVuSans-Bold-25" d="M 4959 1925 
Q 4738 1925 4616 1733 
Q 4494 1541 4494 1184 
Q 4494 825 4614 633 
Q 4734 441 4959 441 
Q 5184 441 5303 633 
Q 5422 825 5422 1184 
Q 5422 1541 5301 1733 
Q 5181 1925 4959 1925 
z
M 4959 2450 
Q 5541 2450 5875 2112 
Q 6209 1775 6209 1184 
Q 6209 594 5875 251 
Q 5541 -91 4959 -91 
Q 4378 -91 4042 251 
Q 3706 594 3706 1184 
Q 3706 1772 4042 2111 
Q 4378 2450 4959 2450 
z
M 2094 -91 
L 1403 -91 
L 4319 4750 
L 5013 4750 
L 2094 -91 
z
M 1453 4750 
Q 2034 4750 2367 4411 
Q 2700 4072 2700 3481 
Q 2700 2891 2367 2550 
Q 2034 2209 1453 2209 
Q 872 2209 539 2550 
Q 206 2891 206 3481 
Q 206 4072 539 4411 
Q 872 4750 1453 4750 
z
M 1453 4225 
Q 1228 4225 1106 4031 
Q 984 3838 984 3481 
Q 984 3122 1106 2926 
Q 1228 2731 1453 2731 
Q 1678 2731 1798 2926 
Q 1919 3122 1919 3481 
Q 1919 3838 1797 4031 
Q 1675 4225 1453 4225 
z
" transform="scale(0.015625)"/>
      <path id="DejaVuSans-Bold-49" d="M 588 4666 
L 1791 4666 
L 1791 0 
L 588 0 
L 588 4666 
z
" transform="scale(0.015625)"/>
      <path id="DejaVuSans-Bold-3c7" d="M 2134 2303 
L 2784 3500 
L 3969 3500 
L 2638 1047 
L 3128 -181 
Q 3228 -428 3339 -512 
Q 3450 -597 3619 -597 
L 3969 -597 
L 3969 -1331 
L 3447 -1331 
Q 2878 -1331 2581 -1098 
Q 2284 -866 2050 -281 
L 1994 -141 
L 1347 -1331 
L 163 -1331 
L 1491 1116 
L 997 2350 
Q 894 2606 778 2686 
Q 663 2766 513 2766 
L 163 2766 
L 163 3500 
L 809 3500 
Q 1219 3500 1525 3279 
Q 1831 3059 2075 2450 
L 2134 2303 
z
" transform="scale(0.015625)"/>
      <path id="DejaVuSans-Bold-b2" d="M 1288 2613 
L 2444 2613 
L 2444 2088 
L 341 2088 
L 341 2566 
L 1319 3397 
Q 1509 3563 1590 3688 
Q 1672 3813 1672 3938 
Q 1672 4094 1558 4191 
Q 1444 4288 1259 4288 
Q 1066 4288 844 4217 
Q 622 4147 359 4000 
L 359 4581 
Q 631 4666 886 4708 
Q 1141 4750 1375 4750 
Q 1869 4750 2150 4548 
Q 2431 4347 2431 4000 
Q 2431 3775 2320 3586 
Q 2209 3397 1894 3128 
L 1288 2613 
z
" transform="scale(0.015625)"/>
     </defs>
     <use xlink:href="#DejaVuSans-Bold-43"/>
     <use xlink:href="#DejaVuSans-Bold-6f" x="73.388672"/>
     <use xlink:href="#DejaVuSans-Bold-6d" x="142.089844"/>
     <use xlink:href="#DejaVuSans-Bold-62" x="246.289062"/>
     <use xlink:href="#DejaVuSans-Bold-69" x="317.871094"/>
     <use xlink:href="#DejaVuSans-Bold-6e" x="352.148438"/>
     <use xlink:href="#DejaVuSans-Bold-65" x="423.339844"/>
     <use xlink:href="#DejaVuSans-Bold-64" x="491.162109"/>
     <use xlink:href="#DejaVuSans-Bold-20" x="562.744141"/>
     <use xlink:href="#DejaVuSans-Bold-63" x="597.558594"/>
     <use xlink:href="#DejaVuSans-Bold-6c" x="656.835938"/>
     <use xlink:href="#DejaVuSans-Bold-65" x="691.113281"/>
     <use xlink:href="#DejaVuSans-Bold-61" x="758.935547"/>
     <use xlink:href="#DejaVuSans-Bold-6e" x="826.416016"/>
     <use xlink:href="#DejaVuSans-Bold-20" x="897.607422"/>
     <use xlink:href="#DejaVuSans-Bold-73" x="932.421875"/>
     <use xlink:href="#DejaVuSans-Bold-65" x="991.943359"/>
     <use xlink:href="#DejaVuSans-Bold-73" x="1059.765625"/>
     <use xlink:href="#DejaVuSans-Bold-73" x="1119.287109"/>
     <use xlink:href="#DejaVuSans-Bold-69" x="1178.808594"/>
     <use xlink:href="#DejaVuSans-Bold-6f" x="1213.085938"/>
     <use xlink:href="#DejaVuSans-Bold-6e" x="1281.787109"/>
     <use xlink:href="#DejaVuSans-Bold-73" x="1352.978516"/>
     <use xlink:href="#DejaVuSans-Bold-20" x="1412.5"/>
     <use xlink:href="#DejaVuSans-Bold-20" x="1447.314453"/>
     <use xlink:href="#DejaVuSans-Bold-b7" x="1482.128906"/>
     <use xlink:href="#DejaVuSans-Bold-20" x="1520.117188"/>
     <use xlink:href="#DejaVuSans-Bold-20" x="1554.931641"/>
     <use xlink:href="#DejaVuSans-Bold-6e" x="1589.746094"/>
     <use xlink:href="#DejaVuSans-Bold-3d" x="1660.9375"/>
     <use xlink:href="#DejaVuSans-Bold-37" x="1744.726562"/>
     <use xlink:href="#DejaVuSans-Bold-36" x="1814.306641"/>
     <use xlink:href="#DejaVuSans-Bold-32" x="1883.886719"/>
     <use xlink:href="#DejaVuSans-Bold-20" x="1953.466797"/>
     <use xlink:href="#DejaVuSans-Bold-20" x="1988.28125"/>
     <use xlink:href="#DejaVuSans-Bold-b7" x="2023.095703"/>
     <use xlink:href="#DejaVuSans-Bold-20" x="2061.083984"/>
     <use xlink:href="#DejaVuSans-Bold-20" x="2095.898438"/>
     <use xlink:href="#DejaVuSans-Bold-57" x="2130.712891"/>
     <use xlink:href="#DejaVuSans-Bold-69" x="2241.015625"/>
     <use xlink:href="#DejaVuSans-Bold-6c" x="2275.292969"/>
     <use xlink:href="#DejaVuSans-Bold-73" x="2309.570312"/>
     <use xlink:href="#DejaVuSans-Bold-6f" x="2369.091797"/>
     <use xlink:href="#DejaVuSans-Bold-6e" x="2437.792969"/>
     <use xlink:href="#DejaVuSans-Bold-20" x="2508.984375"/>
     <use xlink:href="#DejaVuSans-Bold-39" x="2543.798828"/>
     <use xlink:href="#DejaVuSans-Bold-35" x="2613.378906"/>
     <use xlink:href="#DejaVuSans-Bold-25" x="2682.958984"/>
     <use xlink:href="#DejaVuSans-Bold-20" x="2783.154297"/>
     <use xlink:href="#DejaVuSans-Bold-43" x="2817.96875"/>
     <use xlink:href="#DejaVuSans-Bold-49" x="2891.357422"/>
     <use xlink:href="#DejaVuSans-Bold-20" x="2928.564453"/>
     <use xlink:href="#DejaVuSans-Bold-20" x="2963.378906"/>
     <use xlink:href="#DejaVuSans-Bold-b7" x="2998.193359"/>
     <use xlink:href="#DejaVuSans-Bold-20" x="3036.181641"/>
     <use xlink:href="#DejaVuSans-Bold-20" x="3070.996094"/>
     <use xlink:href="#DejaVuSans-Bold-3c7" x="3105.810547"/>
     <use xlink:href="#DejaVuSans-Bold-b2" x="3170.3125"/>
     <use xlink:href="#DejaVuSans-Bold-20" x="3214.111328"/>
     <use xlink:href="#DejaVuSans-Bold-76" x="3248.925781"/>
     <use xlink:href="#DejaVuSans-Bold-73" x="3314.111328"/>
     <use xlink:href="#DejaVuSans-Bold-20" x="3373.632812"/>
     <use xlink:href="#DejaVuSans-Bold-63" x="3408.447266"/>
     <use xlink:href="#DejaVuSans-Bold-68" x="3467.724609"/>
     <use xlink:href="#DejaVuSans-Bold-61" x="3538.916016"/>
     <use xlink:href="#DejaVuSans-Bold-6e" x="3606.396484"/>
     <use xlink:href="#DejaVuSans-Bold-63" x="3677.587891"/>
     <use xlink:href="#DejaVuSans-Bold-65" x="3736.865234"/>
    </g>
   </g>
   <g id="LineCollection_1">
    <path d="M 88.559687 181.115977 
L 88.559687 125.759473 
" clip-path="url(#p1c3f1735bc)" style="fill: none; stroke: #222222; stroke-width: 1.3"/>
   </g>
   <g id="line2d_13">
    <defs>
     <path id="m22c071a282" d="M 5 0 
L -5 -0 
" style="stroke: #222222; stroke-width: 1.2"/>
    </defs>
    <g clip-path="url(#p1c3f1735bc)">
     <use xlink:href="#m22c071a282" x="88.559687" y="181.115977" style="fill: #222222; stroke: #222222; stroke-width: 1.2"/>
    </g>
   </g>
   <g id="line2d_14">
    <g clip-path="url(#p1c3f1735bc)">
     <use xlink:href="#m22c071a282" x="88.559687" y="125.759473" style="fill: #222222; stroke: #222222; stroke-width: 1.2"/>
    </g>
   </g>
   <g id="LineCollection_2">
    <path d="M 166.874271 242.584015 
L 166.874271 188.387879 
" clip-path="url(#p1c3f1735bc)" style="fill: none; stroke: #222222; stroke-width: 1.3"/>
   </g>
   <g id="line2d_15">
    <g clip-path="url(#p1c3f1735bc)">
     <use xlink:href="#m22c071a282" x="166.874271" y="242.584015" style="fill: #222222; stroke: #222222; stroke-width: 1.2"/>
    </g>
   </g>
   <g id="line2d_16">
    <g clip-path="url(#p1c3f1735bc)">
     <use xlink:href="#m22c071a282" x="166.874271" y="188.387879" style="fill: #222222; stroke: #222222; stroke-width: 1.2"/>
    </g>
   </g>
   <g id="LineCollection_3">
    <path d="M 292.177604 157.489855 
L 292.177604 103.112964 
" clip-path="url(#p1c3f1735bc)" style="fill: none; stroke: #222222; stroke-width: 1.3"/>
   </g>
   <g id="line2d_17">
    <g clip-path="url(#p1c3f1735bc)">
     <use xlink:href="#m22c071a282" x="292.177604" y="157.489855" style="fill: #222222; stroke: #222222; stroke-width: 1.2"/>
    </g>
   </g>
   <g id="line2d_18">
    <g clip-path="url(#p1c3f1735bc)">
     <use xlink:href="#m22c071a282" x="292.177604" y="103.112964" style="fill: #222222; stroke: #222222; stroke-width: 1.2"/>
    </g>
   </g>
   <g id="LineCollection_4">
    <path d="M 370.492188 259.332997 
L 370.492188 210.281942 
" clip-path="url(#p1c3f1735bc)" style="fill: none; stroke: #222222; stroke-width: 1.3"/>
   </g>
   <g id="line2d_19">
    <g clip-path="url(#p1c3f1735bc)">
     <use xlink:href="#m22c071a282" x="370.492188" y="259.332997" style="fill: #222222; stroke: #222222; stroke-width: 1.2"/>
    </g>
   </g>
   <g id="line2d_20">
    <g clip-path="url(#p1c3f1735bc)">
     <use xlink:href="#m22c071a282" x="370.492188" y="210.281942" style="fill: #222222; stroke: #222222; stroke-width: 1.2"/>
    </g>
   </g>
  </g>
 </g>
 <defs>
  <clipPath id="p1c3f1735bc">
   <rect x="41.570938" y="35.99625" width="375.91" height="271.641263"/>
  </clipPath>
 </defs>
</svg>
